PathFileType        4      (X/Y/Z)      C:\Users\pc\Desktop\IMUTRC\Sujet_03\Sujet_03_Tpose.trc         
DataRate	CameraRate	NumFrames	NumMarkers	Units	OrigDataRate	OrigDataStartFrame	OrigNumFrames
60.0	60.0	4	64	mm	60.0	31	123
Frame#	Time	pHipOrigin			pRightASI			pLeftASI			pRightCSI			pLeftCSI			pRightIschialTub			pLeftIschialTub			pSacrum			pL5SpinalProcess			pL3SpinalProcess			pT12SpinalProcess			pIJ			pT4SpinalProcess			pT8SpinalProcess			pPX			pC7SpinalProcess			pTopOfHead			pRightAuricularis			pLeftAuricularis			pBackOfHead			pRightAcromion			pLeftAcromion			pRightArmLatEpicondyle			pRightArmMedEpicondyle			pLeftArmLatEpicondyle			pLeftArmMedEpicondyle			pRightUlnarStyloid			pRightRadialStyloid			pRightOlecranon			pLeftUlnarStyloid			pLeftRadialStyloid			pLeftOlecranon			pRightTopOfHand			pRightPinky			pRightBallHand			pLeftTopOfHand			pLeftPinky			pLeftBallHand			pRightGreaterTrochanter			pRightKneeLatEpicondyle			pRightKneeMedEpicondyle			pRightPatella			pLeftGreaterTrochanter			pLeftKneeLatEpicondyle			pLeftKneeMedEpicondyle			pLeftPatella			pRightTibialTub			pRightLatMalleolus			pRightMedMalleolus			pLeftTibialTub			pLeftLatMalleolus			pLeftMedMalleolus			pRightHeelFoot			pRightFirstMetatarsal			pRightFifthMetatarsal			pRightPivotFoot			pRightHeelCenter			pRightToe			pLeftHeelFoot			pLeftFirstMetatarsal			pLeftFifthMetatarsal			pLeftPivotFoot			pLeftHeelCenter			pLeftToe			
		X1	Y1	Z1	X2	Y2	Z2	X3	Y3	Z3	X4	Y4	Z4	X5	Y5	Z5	X6	Y6	Z6	X7	Y7	Z7	X8	Y8	Z8	X9	Y9	Z9	X10	Y10	Z10	X11	Y11	Z11	X12	Y12	Z12	X13	Y13	Z13	X14	Y14	Z14	X15	Y15	Z15	X16	Y16	Z16	X17	Y17	Z17	X18	Y18	Z18	X19	Y19	Z19	X20	Y20	Z20	X21	Y21	Z21	X22	Y22	Z22	X23	Y23	Z23	X24	Y24	Z24	X25	Y25	Z25	X26	Y26	Z26	X27	Y27	Z27	X28	Y28	Z28	X29	Y29	Z29	X30	Y30	Z30	X31	Y31	Z31	X32	Y32	Z32	X33	Y33	Z33	X34	Y34	Z34	X35	Y35	Z35	X36	Y36	Z36	X37	Y37	Z37	X38	Y38	Z38	X39	Y39	Z39	X40	Y40	Z40	X41	Y41	Z41	X42	Y42	Z42	X43	Y43	Z43	X44	Y44	Z44	X45	Y45	Z45	X46	Y46	Z46	X47	Y47	Z47	X48	Y48	Z48	X49	Y49	Z49	X50	Y50	Z50	X51	Y51	Z51	X52	Y52	Z52	X53	Y53	Z53	X54	Y54	Z54	X55	Y55	Z55	X56	Y56	Z56	X57	Y57	Z57	X58	Y58	Z58	X59	Y59	Z59	X60	Y60	Z60	X61	Y61	Z61	X62	Y62	Z62	X63	Y63	Z63	X64	Y64	Z64	
31	0.5	-385.7305	985.24625	-765.6721699999999	-303.2541	1083.65624	-634.8218399999998	-325.20577	1083.14041	-908.4440399999999	-347.7306	1153.23675	-655.3979599999999	-365.89948	1152.83555	-881.2766899999999	-439.83593	929.76525	-704.4023499999998	-448.89172	929.53599	-817.3703799999998	-452.6172	1009.31858	-760.3418699999999	-413.41368	1100.90808	-763.8380899999999	-397.42277	1216.22603	-764.1819799999998	-393.98387	1322.48819	-763.1503099999999	-219.68871	1535.70029	-771.0024699999999	-379.59778	1523.43486	-760.4564999999999	-391.46201	1428.75035	-761.6027999999999	-230.57857	1405.70969	-772.8938699999999	-371.00052	1579.25975	-758.3358399999998	-280.21343	1833.73871	-761.9466899999999	-274.94045	1729.25332	-693.7417399999999	-305.5467	1735.44335	-834.7368399999999	-345.38068	1737.56401	-752.0311799999998	-344.00512	1557.0215	-546.9578199999999	-382.06233	1579.89022	-968.7395099999999	-277.69157	1484.91913	-304.11381999999986	-220.4338	1475.80603	-321.5949199999999	-406.53587	1495.23584	-1222.47337	-346.35504	1488.41535	-1223.50504	-149.01921	1435.3989	-79.95453999999991	-181.34492	1473.8	-60.46740999999991	-237.22712	1462.22236	-328.1288399999999	-388.30968	1440.67189	-1475.34751	-431.29599	1472.99759	-1478.27058	-356.78638	1476.8377	-1214.96509	-127.41143	1438.15002	136.92573000000007	-107.23652	1419.35067	40.75102000000008	-132.74173	1447.49238	-32.72690999999991	-362.97641	1466.69293	-1682.4269	-343.31734	1442.84986	-1587.28386	-376.27351	1458.89808	-1513.11815	-364.4666	951.65961	-602.2095599999999	-399.60075	541.34094	-630.52321	-414.67461	541.79946	-709.10219	-363.66419	541.51289	-680.90317	-403.95669	950.9145100000001	-929.5359899999999	-436.51166	541.45557	-888.21182	-425.56448	542.37261	-809.00237	-386.30365	540.93974	-852.10331	-351.68534	500.93381000000005	-683.36772	-435.5373	89.75542000000004	-635.28036	-448.14662	90.09931000000005	-700.96345	-373.35044	502.13743000000005	-853.65082	-459.8389	89.12495000000006	-871.53313	-450.55385	89.69810000000004	-805.27689	-477.7212	0.05732000000004039	-659.52464	-320.16204	6.1900300000000446	-730.53803	-304.68697	7.68022000000004	-650.41154	-289.89968	7.852170000000043	-695.97703	-438.23111	2.579180000000041	-667.20486	-207.93912	11.176440000000044	-711.85331	-492.62312	5.092688509505372E-14	-831.69915	-320.10473	4.871780000000051	-820.46539	-333.6884	4.470580000000055	-900.99308	-303.88456	5.272990000000053	-863.4517	-452.90377	2.0060300000000515	-838.40501	-221.52279	7.508280000000053	-877.32195	
32	0.517	-385.67318	985.24625	-765.6721699999999	-303.2541	1083.65624	-634.7645299999999	-325.09114	1083.14041	-908.3867199999999	-347.7306	1153.29407	-655.3979599999999	-365.78485	1152.83555	-881.2766899999999	-439.77862	929.76525	-704.4023499999998	-448.8344	929.53599	-817.3703799999998	-452.55988	1009.31858	-760.3991799999999	-413.35637	1100.90808	-763.8380899999999	-397.36546	1216.22603	-764.1819799999998	-393.98387	1322.48819	-763.2076199999999	-219.68871	1535.70029	-771.1170999999999	-379.54047	1523.43486	-760.5711299999999	-391.40469	1428.75035	-761.6601199999999	-230.52126	1405.70969	-772.9511899999999	-370.94321	1579.25975	-758.4504699999999	-280.15612	1833.73871	-762.1186399999999	-274.94045	1729.25332	-693.9136899999999	-305.48938	1735.38603	-834.8514799999999	-345.38068	1737.56401	-752.2031299999999	-344.00512	1557.0215	-547.0724499999999	-382.11965	1579.8329	-968.8541399999999	-277.74888	1485.03376	-304.17113999999987	-220.4338	1475.92066	-321.6522399999999	-406.53587	1495.0639	-1222.588	-346.29772	1488.30072	-1223.56236	-149.07653	1435.62816	-80.01184999999991	-181.40223	1474.02926	-60.524729999999906	-237.22712	1462.33699	-328.2434699999999	-388.30968	1440.49994	-1475.40482	-431.29599	1472.76833	-1478.32789	-356.78638	1476.72307	-1215.02241	-127.46874	1438.4366	136.8684100000001	-107.35115	1419.57994	40.75102000000008	-132.79904	1447.72164	-32.784229999999916	-363.03373	1466.46367	-1682.48421	-343.37465	1442.6206	-1587.34118	-376.33082	1458.66882	-1513.17546	-364.4666	951.65961	-602.2095599999999	-399.60075	541.34094	-630.52321	-414.67461	541.79946	-709.04487	-363.66419	541.51289	-680.84585	-403.78475	950.9145100000001	-929.5359899999999	-436.39703	541.45557	-888.21182	-425.50716	542.3153	-808.94506	-386.24633	540.93974	-852.046	-351.68534	500.93381000000005	-683.3104	-435.5373	89.75542000000004	-635.28036	-448.14662	90.09931000000005	-700.96345	-373.29312	502.13743000000005	-853.59351	-459.8389	89.12495000000006	-871.53313	-450.55385	89.69810000000004	-805.27689	-477.7212	0.05732000000004039	-659.52464	-320.16204	6.1900300000000446	-730.53803	-304.68697	7.68022000000004	-650.41154	-289.89968	7.852170000000043	-695.97703	-438.23111	2.579180000000041	-667.20486	-207.93912	11.176440000000044	-711.85331	-492.62312	5.092688509505372E-14	-831.69915	-320.10473	4.871780000000051	-820.46539	-333.6884	4.470580000000055	-900.99308	-303.88456	5.3303000000000536	-863.4517	-452.90377	2.0060300000000515	-838.40501	-221.52279	7.508280000000053	-877.32195	
33	0.533	-385.61587	985.18893	-765.6721699999999	-303.2541	1083.65624	-634.7072099999999	-324.97651	1083.08309	-908.3294099999999	-347.67328	1153.29407	-655.3406399999999	-365.6129	1152.77823	-881.2193799999999	-439.77862	929.76525	-704.4023499999998	-448.71977	929.53599	-817.3703799999998	-452.50257	1009.31858	-760.3991799999999	-413.29905	1100.90808	-763.8380899999999	-397.30814	1216.22603	-764.1819799999998	-393.92655	1322.43087	-763.2076199999999	-219.63139	1535.70029	-771.2317299999999	-379.48315	1523.43486	-760.6857599999998	-391.40469	1428.75035	-761.7174299999999	-230.46394	1405.70969	-773.0084999999999	-370.94321	1579.25975	-758.5650999999999	-280.0988	1833.73871	-762.2905799999999	-274.88313	1729.25332	-694.0283199999999	-305.48938	1735.38603	-835.0234199999999	-345.32337	1737.56401	-752.3750699999999	-344.00512	1557.07882	-547.1870799999999	-382.11965	1579.71827	-968.9687699999998	-277.74888	1485.14839	-304.2857699999999	-220.4338	1476.03529	-321.76686999999987	-406.53587	1494.94927	-1222.64532	-346.29772	1488.18609	-1223.67699	-149.07653	1435.8001	-80.01184999999991	-181.40223	1474.20121	-60.58203999999991	-237.22712	1462.45162	-328.3007899999999	-388.30968	1440.27068	-1475.46214	-431.29599	1472.53907	-1478.38521	-356.72907	1476.60844	-1215.07972	-127.52606	1438.66586	136.8684100000001	-107.35115	1419.75188	40.69371000000009	-132.79904	1447.89359	-32.84153999999992	-363.14836	1466.23441	-1682.59884	-343.37465	1442.44865	-1587.45581	-376.33082	1458.49688	-1513.23278	-364.4666	951.65961	-602.1522399999999	-399.60075	541.34094	-630.52321	-414.67461	541.79946	-709.04487	-363.66419	541.51289	-680.84585	-403.67012	950.8572000000001	-929.4786699999999	-436.33971	541.45557	-888.1545	-425.44985	542.3153	-808.94506	-386.1317	540.93974	-851.98868	-351.68534	500.93381000000005	-683.3104	-435.5373	89.75542000000004	-635.28036	-448.08931	90.09931000000005	-700.96345	-373.23581	502.08011000000005	-853.59351	-459.8389	89.12495000000006	-871.47581	-450.55385	89.69810000000004	-805.27689	-477.7212	0.05732000000004039	-659.52464	-320.16204	6.1900300000000446	-730.53803	-304.68697	7.68022000000004	-650.41154	-289.89968	7.852170000000043	-695.97703	-438.23111	2.579180000000041	-667.20486	-207.93912	11.176440000000044	-711.85331	-492.62312	5.092688509505372E-14	-831.69915	-320.10473	4.871780000000051	-820.46539	-333.6884	4.470580000000055	-900.99308	-303.88456	5.3303000000000536	-863.4517	-452.90377	2.0060300000000515	-838.40501	-221.52279	7.508280000000053	-877.32195	
34	0.55	-385.55855	985.18893	-765.6148599999999	-303.2541	1083.65624	-634.6498999999999	-324.80457	1083.08309	-908.2720899999999	-347.67328	1153.29407	-655.3406399999999	-365.49827	1152.77823	-881.2193799999999	-439.7213	929.76525	-704.4023499999998	-448.60514	929.47867	-817.3703799999998	-452.44525	1009.31858	-760.3991799999999	-413.24174	1100.85077	-763.8380899999999	-397.25083	1216.16871	-764.1819799999998	-393.86924	1322.43087	-763.2649399999999	-219.63139	1535.70029	-771.2890499999999	-379.48315	1523.43486	-760.7430699999999	-391.34738	1428.69303	-761.7747499999999	-230.40663	1405.767	-773.0658199999999	-370.88589	1579.20244	-758.6224199999999	-280.0988	1833.73871	-762.4625299999999	-274.88313	1729.25332	-694.2002699999999	-305.43207	1735.38603	-835.1380499999999	-345.32337	1737.56401	-752.4896999999999	-344.00512	1557.13613	-547.2443999999999	-382.11965	1579.66096	-969.0260799999999	-277.69157	1485.26302	-304.3430799999999	-220.37649	1476.14992	-321.8241799999999	-406.53587	1494.77732	-1222.70263	-346.29772	1488.07146	-1223.7343	-149.07653	1435.97205	-80.06916999999991	-181.40223	1474.37315	-60.63935999999991	-237.22712	1462.56625	-328.35809999999987	-388.30968	1440.04142	-1475.51945	-431.29599	1472.30981	-1478.44252	-356.72907	1476.49381	-1215.13704	-127.52606	1438.89512	136.8111000000001	-107.35115	1419.98114	40.636390000000084	-132.79904	1448.06553	-32.898859999999914	-363.20567	1465.94784	-1682.65616	-343.43197	1442.21939	-1587.51312	-376.33082	1458.26761	-1513.34741	-364.4666	951.65961	-602.1522399999999	-399.60075	541.34094	-630.46589	-414.67461	541.79946	-709.04487	-363.66419	541.51289	-680.78854	-403.49817	950.8572000000001	-929.4786699999999	-436.22508	541.45557	-888.1545	-425.33522	542.3153	-808.94506	-386.07439	540.88242	-851.98868	-351.68534	500.93381000000005	-683.3104	-435.5373	89.75542000000004	-635.28036	-448.08931	90.09931000000005	-700.96345	-373.12118	502.08011000000005	-853.53619	-459.8389	89.12495000000006	-871.47581	-450.61117	89.69810000000004	-805.27689	-477.7212	0.05732000000004039	-659.52464	-320.16204	6.1900300000000446	-730.53803	-304.68697	7.68022000000004	-650.35423	-289.89968	7.852170000000043	-695.97703	-438.23111	2.579180000000041	-667.20486	-207.93912	11.176440000000044	-711.85331	-492.62312	5.092688509505372E-14	-831.69915	-320.10473	4.871780000000051	-820.46539	-333.6884	4.470580000000055	-900.99308	-303.88456	5.3303000000000536	-863.4517	-452.90377	2.0060300000000515	-838.40501	-221.52279	7.5655900000000535	-877.32195	
